<?xml version="1.0" encoding="utf-8"?>
<!-- Generator: Adobe Illustrator 27.5.0, SVG Export Plug-In . SVG Version: 6.00 Build 0)  -->
<svg version="1.1" xmlns="http://www.w3.org/2000/svg" xmlns:xlink="http://www.w3.org/1999/xlink" x="0px" y="0px"
	 viewBox="0 0 500 500" style="enable-background:new 0 0 500 500;" xml:space="preserve">
<g id="BACKGROUND">
	<rect style="fill:#FFFFFF;" width="500" height="500"/>
	<g>
		<path style="fill:#D5F2F9;" d="M245.876,40.521C79.177,53.178,40.356,152.057,43.839,249.311
			c3.483,97.254-20.622,185.5,57.406,210.663s286.057,23.969,332.734-27.038C480.658,381.929,496.681,21.479,245.876,40.521z"/>
		<path style="fill:#D5F2F9;" d="M100.478,72.174c2.435-3.483,4.486-8.279,2.052-11.763c-1.516-2.17-4.319-3.021-6.951-3.308
			c-7.169-0.782-14.451,1.595-20.434,5.62c-5.984,4.025-10.775,9.607-14.818,15.579c-2.057,3.039-3.986,6.327-4.384,9.975
			c-0.398,3.648,1.12,7.734,4.426,9.325C73.133,103.747,94.233,81.107,100.478,72.174z"/>
		<path style="fill:#D5F2F9;" d="M424.995,117.032c5.658,8.367,13.809,14.918,22.923,19.271c2.793,1.334,5.951,2.49,8.927,1.638
			c4.675-1.339,6.663-6.853,7.212-11.685c1.217-10.706-1.287-21.799-6.984-30.945c-5.308-8.52-21.124-24.99-32.906-19.795
			C409.611,81.936,418.867,107.971,424.995,117.032z"/>
		<path style="fill:#D5F2F9;" d="M396.384,52.39c-4.172,2.521-6.731,7.383-3.888,12.54c2.387,4.329,7.725,6.432,12.656,6.08
			c2.679-0.191,5.518-1.158,6.984-3.408c1.188-1.822,1.264-4.158,0.951-6.311c-0.419-2.882-1.514-5.739-3.538-7.835
			C405.927,49.703,400.406,49.959,396.384,52.39z"/>
	</g>
</g>
<g id="OBJECTS">
	<g>
		<path style="fill:#9DC9DD;" d="M336.448,175.666h-97.865c-1.699,0-3.076-1.377-3.076-3.076V71.38c0-1.699,1.377-3.076,3.076-3.076
			h97.865c1.699,0,3.076,1.377,3.076,3.076v101.21C339.523,174.289,338.146,175.666,336.448,175.666z"/>
		<path style="fill:#FFFFFF;" d="M332.96,170.733h-90.89c-1.179,0-2.134-0.956-2.134-2.134V75.371c0-1.179,0.956-2.134,2.134-2.134
			h90.89c1.179,0,2.134,0.955,2.134,2.134v93.228C335.094,169.778,334.139,170.733,332.96,170.733z"/>
		<rect x="285.117" y="70.535" style="fill:#9DC9DD;" width="4.797" height="102.901"/>
		
			<rect x="285.117" y="69.977" transform="matrix(-1.836970e-16 1 -1 -1.836970e-16 409.5003 -165.53)" style="fill:#9DC9DD;" width="4.797" height="104.017"/>
	</g>
	<g>
		<path style="fill:#9DC9DD;" d="M46.131,392.566c5.565,31.963,19.988,56.08,55.115,67.408
			c78.028,25.164,286.057,23.97,332.734-27.038c6.861-7.498,13.059-21.688,17.845-40.371H46.131z"/>
		<path style="fill:#74A7CB;" d="M46.131,392.566h405.694c1.218-4.754,2.343-9.802,3.366-15.102H44.165
			C44.643,382.667,45.285,387.707,46.131,392.566z"/>
	</g>
	<g>
		<path style="fill:#9DC9DD;" d="M397.583,138.093c-5.244-0.071-10.492,0.109-15.739,0.109c-1.93,0-3.779,1.697-3.689,3.689
			c0.09,1.999,1.621,3.69,3.689,3.69c5.247,0,10.495,0.18,15.739,0.109c1.987,0.027,3.889-1.766,3.798-3.798
			C401.288,139.81,399.712,138.122,397.583,138.093z"/>
		<path style="fill:#9DC9DD;" d="M430.475,289.534c-5.245-0.072-10.492,0.109-15.739,0.109c-1.93,0-3.779,1.697-3.69,3.69
			c0.09,1.999,1.621,3.69,3.69,3.69c5.247,0,10.495,0.18,15.739,0.109c1.987,0.027,3.889-1.766,3.798-3.798
			C434.18,291.251,432.605,289.563,430.475,289.534z"/>
		<path style="fill:#9DC9DD;" d="M414.487,153.548c-0.111-0.008-0.221-0.01-0.332-0.017c-0.35-0.131-0.726-0.213-1.13-0.208
			c-0.793-0.009-1.587,0.005-2.38,0.024c-1.35-0.045-2.702-0.066-4.063-0.069c-2.638-0.007-5.27,0.134-7.905,0.147
			c-1.681,0.008-3.291,1.473-3.213,3.213c0.078,1.734,1.412,3.221,3.213,3.213c2.634,0.012,5.267,0.153,7.905,0.147
			c1.361-0.003,2.712-0.025,4.062-0.069c0.793,0.019,1.587,0.033,2.38,0.024c0.358-0.004,0.709-0.084,1.046-0.204
			c0.139-0.01,0.277-0.012,0.416-0.022c1.608-0.12,3.168-1.335,3.089-3.089C417.506,155.066,416.213,153.419,414.487,153.548z"/>
		<path style="fill:#9DC9DD;" d="M73.006,337.164c-5.245-0.072-10.492,0.109-15.739,0.109c-1.93,0-3.779,1.697-3.689,3.689
			c0.09,1.999,1.621,3.69,3.689,3.69c5.247,0,10.494,0.18,15.739,0.109c1.987,0.027,3.889-1.766,3.798-3.798
			C76.711,338.881,75.136,337.193,73.006,337.164z"/>
		<path style="fill:#9DC9DD;" d="M133.743,110.489c-5.245-0.072-10.492,0.109-15.739,0.109c-1.93,0-3.779,1.697-3.689,3.689
			c0.09,1.999,1.621,3.689,3.689,3.689c5.247,0,10.495,0.18,15.739,0.109c1.987,0.027,3.889-1.766,3.798-3.798
			C137.449,112.206,135.873,110.518,133.743,110.489z"/>
		<path style="fill:#9DC9DD;" d="M89.911,352.619c-0.111-0.008-0.221-0.01-0.332-0.017c-0.35-0.131-0.726-0.213-1.13-0.208
			c-0.794-0.009-1.587,0.005-2.38,0.024c-1.35-0.045-2.701-0.066-4.063-0.07c-2.638-0.007-5.27,0.135-7.904,0.147
			c-1.681,0.008-3.291,1.473-3.213,3.213c0.078,1.734,1.412,3.221,3.213,3.213c2.634,0.012,5.266,0.153,7.904,0.147
			c1.361-0.003,2.712-0.025,4.062-0.069c0.793,0.019,1.587,0.033,2.381,0.024c0.358-0.004,0.709-0.084,1.046-0.203
			c0.139-0.01,0.277-0.012,0.416-0.022c1.608-0.12,3.168-1.335,3.089-3.089C92.93,354.137,91.636,352.49,89.911,352.619z"/>
		<path style="fill:#9DC9DD;" d="M120.807,126.589c-0.111-0.008-0.221-0.01-0.332-0.017c-0.35-0.131-0.726-0.213-1.13-0.208
			c-0.793-0.009-1.587,0.005-2.38,0.024c-1.35-0.045-2.701-0.066-4.063-0.07c-2.638-0.007-5.27,0.135-7.905,0.147
			c-1.681,0.008-3.291,1.473-3.213,3.213c0.078,1.734,1.412,3.221,3.213,3.213c2.634,0.012,5.267,0.153,7.905,0.147
			c1.361-0.003,2.712-0.025,4.062-0.069c0.793,0.019,1.587,0.033,2.381,0.024c0.358-0.004,0.709-0.084,1.046-0.203
			c0.139-0.01,0.277-0.012,0.416-0.022c1.608-0.12,3.168-1.335,3.089-3.089C123.826,128.107,122.532,126.461,120.807,126.589z"/>
		<path style="fill:#9DC9DD;" d="M89.911,325.034c-0.111-0.008-0.221-0.009-0.332-0.017c-0.35-0.131-0.726-0.213-1.13-0.208
			c-0.794-0.009-1.587,0.005-2.38,0.024c-1.35-0.045-2.701-0.066-4.063-0.07c-2.638-0.007-5.27,0.135-7.904,0.147
			c-1.681,0.008-3.291,1.473-3.213,3.213c0.078,1.734,1.412,3.221,3.213,3.213c2.634,0.012,5.266,0.153,7.904,0.147
			c1.361-0.003,2.712-0.025,4.062-0.069c0.793,0.019,1.587,0.033,2.381,0.024c0.358-0.004,0.709-0.084,1.046-0.204
			c0.139-0.01,0.277-0.011,0.416-0.022c1.608-0.12,3.168-1.335,3.089-3.089C92.93,326.552,91.636,324.905,89.911,325.034z"/>
	</g>
	<g>
		<ellipse style="fill:#74A7CB;" cx="176.49" cy="428.063" rx="110.311" ry="24.206"/>
		<g>
			<g>
				<path style="fill:#222859;" d="M141.561,356.863l-18.21,79.72c-0.688,3.014,1.104,6.038,4.077,6.882
					c2.992,0.849,6.121-0.808,7.1-3.76l26.471-79.819L141.561,356.863z"/>
				<path style="fill:#222859;" d="M261.432,347.36l18.21,79.72c0.688,3.014-1.104,6.038-4.078,6.882
					c-2.991,0.849-6.121-0.808-7.1-3.76l-26.471-79.819L261.432,347.36z"/>
				<path style="fill:#222859;" d="M227.823,342.896l15.658,68.549c0.592,2.591-0.949,5.192-3.506,5.918
					c-2.572,0.73-5.263-0.695-6.105-3.233l-22.762-68.634L227.823,342.896z"/>
				<path style="fill:#222859;" d="M122.359,331.877l-17.516,76.683c-0.662,2.899,1.062,5.808,3.922,6.62
					c2.877,0.817,5.888-0.778,6.829-3.617l25.463-76.778L122.359,331.877z"/>
				<path style="fill:#ED6C6B;" d="M135.931,195.491c-22.161,6.508-38.994,20.545-43.099,74.93
					c-4.105,54.385,0.821,74.527,33.248,87.821c32.427,13.294,80.451,10.877,113.289,0.403
					c32.837-10.474,56.644-31.825,40.636-45.925c-16.008-14.1-52.54-20.143-68.958-27.394
					C194.628,278.076,188.06,180.183,135.931,195.491z"/>
			</g>
			<g>
				<path style="fill:#C18F71;" d="M199.256,333.227c0,0,19.13,4.924,30.083,8.358c11.478,3.598,28.29,23.308,30.4,27.702
					c2.11,4.393-2.14,5.621-3.744,4.667c0,0-1.8,1.892-4.034,1.209c0,0-1.44,0.991-3.62,0.957c0,0-2.25,1.712-4.466,1.245
					c0,0-1.063,0.307-3.278-0.16c-2.216-0.467-10.273-10.891-12.183-12.907c-1.91-2.016-5.01-5.238-6.361-5.778
					c-1.351-0.54-29.648-3.171-29.648-3.171L199.256,333.227z"/>
				<polygon style="fill:#A36856;" points="197.776,355.857 206.689,340.367 197.2,341.343 				"/>
				<path style="fill:#222859;" d="M145.269,122.072c-0.806,0.588-1.593,1.204-2.359,1.847c-4.073,3.417-6.655,7.058-7.177,12.498
					c-0.383,3.993,0.84,8.664-1.325,12.303c-3.943,6.628-14.223,13.228-8.016,22.929c6.207,9.7,2.53,5.792,2.511,12
					c-0.019,6.208-7.802,17.977,18.281,24.659c26.083,6.682,50.912,0.304,58.24-7.707c7.327-8.011,3.379-17.388,0.285-22.115
					c-3.094-4.727,6.72-9.453,1.633-17.502c-2.551-4.036-1.305-9.047-0.901-13.474c0.579-6.347-0.276-11.838-4.185-17.045
					c-7.159-9.536-18.499-15.792-30.425-16.473C162.273,113.446,152.926,116.485,145.269,122.072z"/>
				<path style="fill:#FFCE5E;" d="M101.407,301.864c12.448-11.38,36.545-6.144,36.545-6.144l32.243-4.075l53.931,2.195
					c0,0,28.754-4.6,46.249-6.796l-9.018,26.966l-73.043,23.394l-41.253-3.909L101.407,301.864z"/>
				<path style="fill:#FFCE5E;" d="M170.568,307.776c0,0-42.799-9.467-55.803-8.811c-13.004,0.656-18.261,2.838-18.416,16.563
					c-0.154,13.724,31.863,34.761,47.823,38.21c15.96,3.449,53.386,3.356,53.386,3.356l4.349-24.74l-47.978-17.957L170.568,307.776z
					"/>
				<path style="fill:#C18F71;" d="M191.087,328.108c0,0-18.652,6.506-29.279,10.844c-11.137,4.546-26.243,25.592-27.978,30.146
					c-1.735,4.555,2.603,5.422,4.121,4.338c0,0,1.952,1.735,4.121,0.868c0,0,1.518,0.868,3.687,0.651c0,0,2.386,1.518,4.555,0.867
					c0,0,1.084,0.217,3.253-0.434c2.169-0.651,9.326-11.711,11.061-13.88c1.735-2.169,4.555-5.639,5.856-6.29
					c1.301-0.651,29.279-5.639,29.279-5.639L191.087,328.108z"/>
				<path style="fill:#FFFFFF;" d="M151.688,193.931c-13.591,3.904-30.074,19.375-33.544,41.641s0,41.352,20.242,49.449
					c0,0,0.145,7.663-0.434,10.699c0,0,63.474,7.663,86.174-1.88l-1.157-7.518l13.88-19.375c0,0-11.278-50.027-17.495-60.293
					c-6.217-10.266-12.145-11.133-21.977-14.459c0,0-29.206,1.301-29.64,1.301C167.303,193.497,151.688,193.931,151.688,193.931z"/>
				<polygon style="fill:#697BAE;" points="157.067,295.82 205.865,291.25 197.762,304.867 				"/>
				<polygon style="fill:#222859;" points="170.337,296.45 218.735,292.296 210.518,303.467 				"/>
				<path style="fill:#C18F71;" d="M162.676,179.183c0,0,1.157,5.205-0.289,8.964c-1.446,3.759-10.699,5.784-10.699,5.784
					s23.134,15.326,45.689-1.735c0,0-5.858-2.249-9.832-4.338c-3.974-2.088-3.759-11.278-3.759-11.278L162.676,179.183z"/>
				<path style="fill:#C18F71;" d="M166.435,291.238l5.061-13.88c0,0,2.723,1.562,8.097,2.169c5.866,0.662,9.905,0.78,14.759,2.166
					c4.853,1.387,11.093,12.827,10.747,15.253c-0.347,2.427-3.467,1.127-4.073,0.347c0,0-1.3,2.08-3.727,0.867
					c0,0-1.82,1.213-3.467,0.173c-1.647-1.04-5.98-3.64-8.147-4.68C183.518,292.613,177.615,295.918,166.435,291.238z"/>
				<polygon style="fill:#495E84;" points="198.124,306.038 157.106,297.859 157.067,295.82 196.919,303.455 				"/>
				<path style="fill:#A36856;" d="M186.305,186.843c-2.684-3.122-2.519-10.263-2.519-10.263l-21.11,2.603
					c0,0,1.157,5.205-0.289,8.964c-0.431,1.121-1.559,2.086-2.926,2.891c1.396,0.986,2.961,1.742,4.592,2.183
					c5.455,1.476,11.329,0.088,16.431-2.342C182.628,189.859,184.733,188.593,186.305,186.843z"/>
				<path style="fill:#C18F71;" d="M146.886,161.465c0,0-7.684,0.624-5.393,7.079c2.291,6.455,9.775,4.719,9.775,4.719
					s8.654,15.974,28.202,14.913c17.08-0.927,23.042-28.046,14.608-44.913c-3.371-6.742-9.438-9.101-15.506-6.742
					c-6.068,2.36-3.708,7.753-8.764,9.101c-5.056,1.348-12.135,1.011-14.157,5.73C153.627,156.072,152.616,161.465,146.886,161.465z
					"/>
				<g>
					<path style="fill:#A36856;" d="M149.419,167.509c-0.329-0.744-0.991-1.331-1.635-1.803c-0.345-0.253-0.727-0.469-1.131-0.611
						c-0.451-0.159-0.957-0.283-1.429-0.179c-0.526,0.115-0.752,0.89-0.33,1.249c0.174,0.148,0.337,0.243,0.539,0.343
						c0.146,0.072,0.287,0.152,0.425,0.239c0.147,0.093,0.298,0.182,0.444,0.277c0.058,0.038,0.114,0.078,0.171,0.118
						c-0.008-0.007-0.017-0.015-0.016-0.018c-0.001,0.004,0.017,0.016,0.027,0.025c0.007,0.005,0.015,0.01,0.022,0.015
						c0.081,0.057,0.034,0.029-0.007-0.002c0.033,0.025,0.07,0.053,0.077,0.059c0.109,0.091,0.212,0.189,0.311,0.29c0,0,0,0,0,0
						c-0.576,0.243-0.899,0.844-0.902,1.457c-0.006,1.337,1.64,2.121,2.722,1.409c0.442-0.291,0.787-0.748,0.91-1.268
						C149.749,168.553,149.646,168.023,149.419,167.509z"/>
					<path style="fill:#A36856;" d="M146.472,167.144c0.008,0.007,0.014,0.013,0.025,0.021c-0.007-0.006-0.009-0.009-0.015-0.014
						C146.479,167.148,146.476,167.146,146.472,167.144z"/>
				</g>
				<path style="fill:#A36856;" d="M192.787,141.087c-3.501-5.046-8.857-6.649-14.215-4.565c-6.068,2.36-3.708,7.753-8.764,9.101
					c-5.056,1.348-12.135,1.011-14.157,5.73c-2.022,4.719-3.034,10.112-8.764,10.112c4.832,0.087,7.825-0.063,9.62-5.15
					c1.795-5.087,7.93-7.865,12.269-7.673c4.339,0.192,7.182-2.053,8.678-5.644C178.627,140.182,186.617,137.644,192.787,141.087z"
					/>
				<path style="fill:#A36856;" d="M183.924,330.646l10.457,19.901c0.062-0.011,0.118-0.021,0.18-0.033l0.859-11.685l-4.332-10.722
					C191.087,328.108,188.139,329.136,183.924,330.646z"/>
				<path style="fill:#697BAE;" d="M200.811,193.325c-0.488-0.158-0.987-0.32-1.496-0.487c-1.542,1.758-3.255,3.363-5.169,4.709
					c-3.448,2.424-7.411,3.694-11.508,4.526c-8.388,1.703-17.396,1.512-25.404-1.726c-3.255-1.316-6.074-3.141-8.725-5.307
					c-0.407,0.165-0.815,0.339-1.225,0.523c2.364,2.222,5.239,4.017,8.102,5.387c3.758,1.798,7.787,2.953,11.919,3.454
					c4.685,0.568,9.427,0.335,14.068-0.486c4.415-0.781,8.847-1.987,12.649-4.438C196.615,197.81,198.851,195.686,200.811,193.325z"
					/>
				<path style="fill:#697BAE;" d="M212.717,236.794c-0.443-1.948-0.996-3.872-1.519-5.799c-0.541-1.997-1.069-3.999-1.629-5.991
					c-0.28-0.996-0.562-1.992-0.852-2.985c-0.252-0.863-0.412-1.831-1.057-2.49c-0.022-0.023-0.062-0.012-0.07,0.019
					c-0.204,0.764,0.033,1.51,0.203,2.266c0.226,1.01,0.483,2.014,0.725,3.02c0.485,2.012,1.01,4.015,1.52,6.021
					c0.494,1.944,1.018,3.884,1.448,5.844c0.228,1.038,0.434,2.083,0.568,3.138c0.111,0.872,0.109,1.776,0.355,2.621
					c0.122,0.418,0.773,0.45,0.879,0C213.702,240.703,213.107,238.512,212.717,236.794z"/>
				<path style="fill:#A36856;" d="M172.903,277.985c-0.931-0.358-1.407-0.628-1.407-0.628l-5.061,13.881
					c1.846,0.773,3.535,1.312,5.101,1.705C172.263,287.986,172.719,282.991,172.903,277.985z"/>
				<path style="fill:#697BAE;" d="M172.96,275.171c-3.37-1.834-6.98-3.248-10.39-5.022c-3.299-1.717-6.511-3.592-9.635-5.607
					c-2.823-1.82-5.597-3.764-8.09-6.024c-0.821-0.744-1.602-1.539-2.359-2.354c0.6-2.521,0.629-5.172,0.946-7.743
					c0.362-2.938,0.82-5.863,1.407-8.765c0.559-2.764,1.231-5.503,2.003-8.215c0.385-1.355,0.772-2.71,1.196-4.054
					c0.401-1.271,1.1-2.639,1.121-3.981c0.006-0.394-0.551-0.672-0.826-0.342c-0.811,0.973-1.136,2.36-1.551,3.539
					c-0.491,1.396-0.963,2.802-1.384,4.221c-0.84,2.837-1.536,5.72-2.125,8.619c-0.561,2.762-1.022,5.548-1.343,8.348
					c-0.273,2.378-0.624,4.848-0.456,7.255c-0.042-0.049-0.088-0.094-0.129-0.143c-1.04-1.234-1.875-2.741-3.019-3.872
					c-0.028-0.028-0.088-0.009-0.084,0.035c0.144,1.518,1.089,3.063,1.921,4.299c0.905,1.343,1.945,2.577,3.091,3.719
					c2.463,2.452,5.275,4.496,8.179,6.39c3.343,2.181,6.804,4.187,10.349,6.021c3.178,1.645,6.522,3.382,9.966,4.447
					c-1.268,2.923-2.504,5.869-3.597,8.862c-0.563,1.543-1.096,3.093-1.592,4.659c-0.358,1.13-0.847,2.343-1.089,3.55
					c-4.84-0.525-9.648-1.466-14.295-2.923c-2.387-0.748-4.738-1.617-7.034-2.61c-1.108-0.479-2.205-0.985-3.293-1.505
					c-1.027-0.491-2.065-1.182-3.185-1.423c-0.203-0.044-0.354,0.195-0.205,0.352c0.79,0.825,1.941,1.312,2.941,1.838
					c1.126,0.592,2.272,1.141,3.434,1.659c2.304,1.027,4.659,1.939,7.055,2.727c4.728,1.554,9.575,2.636,14.518,3.197
					c0.091,0.088,0.235,0.104,0.353,0.042c0.556,0.056,0.732-0.501,0.547-0.91c0.528-1.123,0.854-2.392,1.267-3.531
					c0.559-1.546,1.122-3.09,1.69-4.632c1.123-3.047,2.255-6.088,3.483-9.095C173.213,276.139,173.449,275.438,172.96,275.171z"/>
				<path style="fill:#A36856;" d="M198.207,295.566c-0.275-0.268-0.548-0.537-0.839-0.787c-0.582-0.502-1.17-0.996-1.765-1.483
					c-0.585-0.479-1.169-0.967-1.779-1.415c-0.308-0.226-0.623-0.442-0.936-0.66c-0.269-0.187-0.522-0.318-0.859-0.305
					c-0.588,0.023-0.625,0.76-0.131,0.966c0.225,0.094,0.417,0.314,0.598,0.471c0.257,0.223,0.509,0.451,0.772,0.666
					c0.562,0.457,1.118,0.922,1.669,1.393c0.535,0.457,1.062,0.923,1.588,1.39c0.256,0.227,0.524,0.44,0.787,0.658
					c0.297,0.247,0.6,0.511,0.996,0.568c0.322,0.047,0.605-0.182,0.526-0.526C198.746,296.116,198.482,295.834,198.207,295.566z"/>
				<path style="fill:#A36856;" d="M199.619,292.016c-0.553-0.556-1.159-1.066-1.759-1.569c-0.589-0.493-1.194-0.96-1.819-1.406
					c-0.326-0.232-0.655-0.46-0.988-0.683c-0.145-0.097-0.288-0.204-0.446-0.28c-0.209-0.101-0.37-0.107-0.595-0.146
					c-0.106-0.019-0.199,0.083-0.142,0.186c0.091,0.164,0.143,0.311,0.267,0.452c0.12,0.136,0.259,0.245,0.399,0.361
					c0.292,0.244,0.581,0.491,0.866,0.743c0.587,0.517,1.165,1.046,1.735,1.582c0.557,0.524,1.086,1.076,1.632,1.612
					c0.541,0.53,1.054,1.193,1.796,1.432c0.262,0.084,0.477-0.18,0.423-0.423C200.817,293.118,200.148,292.547,199.619,292.016z"/>
				<path style="fill:#A36856;" d="M200.324,289.008c-0.411-0.423-0.848-0.822-1.276-1.228c-0.419-0.398-0.831-0.798-1.283-1.158
					c-0.228-0.182-0.465-0.365-0.72-0.508c-0.061-0.034-0.406-0.19-0.45-0.047c-0.077,0.255,0.065,0.443,0.199,0.653
					c0.147,0.232,0.313,0.446,0.481,0.663c0.349,0.452,0.755,0.86,1.141,1.28c0.37,0.402,0.734,0.81,1.119,1.197
					c0.403,0.404,0.828,0.912,1.391,1.079c0.293,0.087,0.573-0.202,0.492-0.492C201.256,289.87,200.731,289.426,200.324,289.008z"/>
				<path style="fill:#495E84;" d="M195.56,305.249l2.565,0.79l88.825-1.698l15.263-63.749l-89.339,1.708
					c-1.298,0.025-2.416,0.924-2.718,2.186L195.56,305.249z"/>
				<path style="fill:#697BAE;" d="M198.124,306.038l91.543-1.75l14.685-61.333c0.293-1.223-0.648-2.392-1.905-2.368l-87.041,1.664
					c-1.188,0.023-2.212,0.846-2.488,2.002L198.124,306.038z"/>
				<path style="fill:#FFCE5E;" d="M215.161,310.106c0,0,42.292-15.182,55.305-15.615c13.013-0.434,18.764,7.56,20.065,21.224
					c1.301,13.663-27.222,23.454-42.837,28.225c-15.615,4.771-52.919,7.808-52.919,7.808l-6.402-24.29l46.308-21.906
					L215.161,310.106z"/>
				<ellipse style="fill:#495E84;" cx="252.504" cy="276.604" rx="8.675" ry="8.458"/>
				<path style="fill:#FF8F3D;" d="M258.936,300.286c-1.253,0.402-2.491,0.851-3.721,1.327c-0.045-0.075-0.098-0.143-0.161-0.201
					c-0.154-0.141-0.321-0.263-0.496-0.376c-0.133-0.086-0.27-0.166-0.409-0.241c-0.206-0.111-0.475-0.21-0.713-0.198
					c-0.295,0.014-0.54,0.214-0.58,0.512c-0.037,0.273,0.133,0.582,0.418,0.646c0.108,0.058,0.211,0.132,0.317,0.194
					c0.103,0.06,0.202,0.124,0.301,0.19c-3.091,1.244-6.139,2.618-9.229,3.836c-4.775,1.883-9.587,3.673-14.433,5.366
					c-9.514,3.324-19.208,6.017-28.91,8.721c-2.429,0.677-4.846,1.41-7.17,2.397c-1.612,0.685-3.764,1.505-5.121,2.829
					c-0.088-0.066-0.189-0.124-0.317-0.159c-16.082-4.377-30.9-11.769-46.146-18.337c-1.766-0.76-3.536-1.517-5.322-2.229
					c0.101-0.007,0.202,0,0.302-0.01c0.454-0.045,0.896-0.109,1.331-0.246c0.435-0.137,0.774-0.38,1.115-0.677
					c0.213-0.185,0.032-0.517-0.218-0.527c-0.417-0.016-0.803-0.029-1.218,0.036c-0.363,0.057-0.729,0.122-1.093,0.164
					c-0.393,0.045-0.79,0.066-1.186,0.062c-0.408-0.003-0.827-0.033-1.226,0.072c-0.106,0.028-0.185,0.092-0.242,0.172
					c-0.552-0.208-1.106-0.411-1.665-0.598c-1.012-0.34-2.088-0.841-3.171-0.74c-0.03,0.003-0.047,0.036-0.025,0.06
					c0.609,0.659,1.461,0.957,2.262,1.334c0.979,0.462,1.969,0.897,2.958,1.339c1.86,0.831,3.727,1.646,5.585,2.482
					c3.784,1.704,7.526,3.497,11.296,5.233c7.466,3.438,14.938,6.92,22.638,9.809c4.3,1.613,8.672,3.102,13.127,4.233
					c-0.122,1.03,0.189,2.134,0.367,3.146c0.215,1.221,0.453,2.437,0.711,3.65c0.5,2.352,1.054,4.693,1.663,7.02
					c0.583,2.228,1.206,4.447,1.931,6.633c0.385,1.161,0.801,2.311,1.252,3.447c0.703,1.773,2.528,1.692,4.26,1.584
					c-0.142,0.374-0.229,0.792-0.305,1.183c-0.166,0.851-0.293,1.709-0.391,2.571c-0.989-0.053-2.005,0.111-2.985,0.189
					c-1.188,0.095-2.376,0.183-3.565,0.264c-2.5,0.17-5.004,0.343-7.509,0.435c-2.402,0.088-4.81,0.083-7.206-0.135
					c-1.128-0.103-2.238-0.319-3.362-0.446c-1.143-0.129-1.588-0.017-2.273,0.809c-0.031,0.038-0.011,0.093,0.04,0.096
					c0.353,0.022,0.716,0.196,1.079,0.231c0.59,0.058,1.167,0.119,1.753,0.218c1.062,0.179,2.125,0.336,3.197,0.438
					c2.395,0.228,4.806,0.243,7.209,0.175c2.36-0.066,4.716-0.204,7.071-0.368c1.189-0.083,2.377-0.173,3.565-0.27
					c1.14-0.093,2.416-0.052,3.501-0.424c0.25-0.085,0.408-0.347,0.431-0.603c0.221-0.108,0.361-0.337,0.383-0.598
					c0.068-0.784,0.172-1.56,0.298-2.337c0.066-0.409,0.164-0.837,0.188-1.25c0.004-0.075,0.009-0.157,0.012-0.239
					c1.412-0.046,2.823-0.115,4.234-0.199c2.996-0.178,5.991-0.401,8.98-0.683c2.841-0.268,5.674-0.666,8.497-1.085
					c2.94-0.436,6.003-0.78,8.777-1.878c0.344-0.136,0.321-0.669-0.091-0.675c-2.825-0.042-5.653,0.563-8.447,0.956
					c-3.051,0.429-6.111,0.763-9.172,1.11c-2.915,0.33-5.835,0.6-8.762,0.798c-1.462,0.099-2.926,0.184-4.39,0.266
					c-0.983,0.055-2.269-0.129-3.178,0.333c-0.164-0.507-0.446-1.011-0.62-1.47c-0.406-1.075-0.78-2.161-1.129-3.255
					c-0.701-2.196-1.328-4.419-1.917-6.647c-0.596-2.254-1.141-4.522-1.634-6.801c-0.247-1.139-0.486-2.28-0.719-3.421
					c-0.187-0.915-0.3-1.88-0.658-2.747c0.13-0.078,0.232-0.187,0.308-0.317c0.753-0.288,1.419-0.714,2.151-1.118
					c1.054-0.58,2.147-1.087,3.263-1.535c2.072-0.832,4.211-1.493,6.36-2.092c4.728-1.317,9.469-2.57,14.174-3.969
					c9.695-2.882,19.278-6.241,28.692-9.939c5.18-2.035,10.591-3.958,15.414-6.754C259.665,300.821,259.399,300.138,258.936,300.286
					z"/>
				<path style="fill:#FF8F3D;" d="M281.558,295.654c-4.033-2.181-8.712-2.314-13.162-1.707c-5.099,0.695-10.167,1.949-15.159,3.183
					c-4.962,1.227-9.857,2.765-14.696,4.407c-2.692,0.914-5.369,1.873-8.015,2.913c-2.622,1.03-5.551,1.975-7.874,3.585
					c-0.264,0.183-0.101,0.574,0.216,0.513c2.33-0.45,4.601-1.511,6.824-2.333c2.197-0.812,4.404-1.601,6.618-2.364
					c4.499-1.551,9.048-2.959,13.637-4.221c4.59-1.262,9.179-2.527,13.84-3.511c4.66-0.984,9.703-1.8,14.369-0.394
					c4.323,1.303,7.376,4.35,8.778,8.603c0.166,0.504,0.989,0.448,0.964-0.131C287.738,300.437,284.699,297.353,281.558,295.654z"/>
				<g>
					<path style="fill:#A36856;" d="M161.908,342.117c0.033,0.053,0.023,0.019-0.042-0.125c-0.025-0.037-0.055-0.071-0.083-0.105
						c-0.006-0.007-0.01-0.017-0.016-0.023c0.003,0.005,0.004,0.007,0.006,0.011c-0.01-0.012-0.018-0.025-0.029-0.036
						c-0.083-0.087-0.176-0.153-0.287-0.2c-0.18-0.076-0.388-0.091-0.584-0.082c-0.172,0.008-0.345,0.037-0.514,0.065
						c0.261-0.043,0.097-0.016,0.035-0.008c-0.128,0.015-0.257,0.029-0.383,0.053c-0.283,0.054-0.575,0.192-0.822,0.337
						c-0.264,0.154-0.51,0.347-0.741,0.546c-0.853,0.736-1.501,1.863-1.447,3.013c0.02,0.428,0.31,0.782,0.742,0.84
						c0.422,0.057,0.816-0.201,0.939-0.613c0.061-0.206,0.139-0.41,0.213-0.612c0.002-0.005,0.005-0.011,0.007-0.017
						c-0.01,0.019-0.014,0.028-0.029,0.057c0.023-0.044,0.04-0.09,0.062-0.135c0.047-0.097,0.098-0.191,0.153-0.284
						c0.055-0.093,0.11-0.186,0.169-0.276c0.027-0.042,0.055-0.083,0.084-0.124c0.005-0.007,0.01-0.014,0.016-0.021
						c0.111-0.153,0.261-0.294,0.397-0.417c0.037-0.034,0.075-0.066,0.113-0.099c0.004-0.003,0.007-0.006,0.011-0.009
						c0.069-0.054,0.145-0.105,0.217-0.151c0.176-0.112,0.353-0.216,0.535-0.317c0.092-0.052,0.179-0.113,0.271-0.166
						c0.017-0.01,0.012-0.009,0.02-0.014c0.04-0.014,0.08-0.029,0.12-0.042c0.094-0.032,0.188-0.063,0.281-0.096
						c0.25-0.089,0.39-0.219,0.543-0.434C161.974,342.479,161.968,342.288,161.908,342.117z"/>
					<path style="fill:#A36856;" d="M158.903,345.161C158.969,345.029,158.929,345.099,158.903,345.161L158.903,345.161z"/>
				</g>
				<path style="fill:#A36856;" d="M238.546,349.727c-0.18-0.371-0.553-0.649-0.922-0.811c-0.214-0.094-0.43-0.171-0.653-0.238
					c-0.137-0.041-0.274-0.084-0.408-0.132c-0.044-0.022-0.087-0.044-0.128-0.071c-0.057-0.049-0.116-0.097-0.193-0.129
					c-0.229-0.097-0.563-0.075-0.733,0.133c-0.002,0.002-0.004,0.005-0.006,0.007c-0.144,0.177-0.265,0.423-0.174,0.658
					c0.076,0.194,0.169,0.372,0.332,0.509c0.175,0.148,0.366,0.228,0.581,0.305c0.212,0.077,0.427,0.144,0.637,0.224
					c0.093,0.043,0.182,0.095,0.268,0.151c0.024,0.022,0.047,0.046,0.07,0.07c0.054,0.079,0.102,0.162,0.145,0.248
					c0.004,0.014,0.009,0.029,0.012,0.043c0.007,0.164,0,0.317,0.1,0.476c0.218,0.346,0.71,0.334,0.964,0.03
					C238.788,350.778,238.777,350.204,238.546,349.727z"/>
				<g>
					<path style="fill:#222859;" d="M169.548,154.702c-0.006-0.001-0.011-0.003-0.017-0.004
						C169.418,154.678,169.296,154.712,169.548,154.702z"/>
					<path style="fill:#222859;" d="M168.428,154.698C168.333,154.719,168.275,154.747,168.428,154.698L168.428,154.698z"/>
					<path style="fill:#222859;" d="M172.416,153.562c-0.196-1.207-1.509-1.443-2.521-1.552c-0.758-0.081-1.551,0.003-2.288,0.188
						c-0.714,0.18-1.428,0.486-2.04,0.897c-0.723,0.486-1.158,1.279-1.479,2.071c-0.252,0.622,0.633,1.307,1.173,0.902
						c0.232-0.174,0.476-0.328,0.736-0.457c0.062-0.031,0.125-0.059,0.187-0.088c0.01-0.003,0.006-0.001,0.024-0.007
						c0.213-0.074,0.416-0.165,0.61-0.278c0.131-0.076,0.266-0.142,0.402-0.21c0.012-0.006,0.017-0.009,0.025-0.013
						c0.059-0.022,0.117-0.046,0.176-0.067c0.286-0.102,0.58-0.18,0.878-0.234c0.057-0.01,0.125-0.011,0.18-0.03
						c-0.027,0.009-0.032,0.01-0.051,0.016c0.021-0.005,0.042-0.01,0.063-0.012c0.151-0.013,0.302-0.02,0.453-0.02
						c0.151-0.001,0.303,0.005,0.454,0.017c0.058,0.005,0.123,0.02,0.181,0.017c-0.016,0.001-0.018,0-0.031,0.001
						c0.293,0.053,0.569,0.153,0.857,0.222c0.276,0.066,0.566,0.126,0.846,0.089c0.259-0.035,0.463-0.142,0.682-0.266
						C172.372,154.499,172.49,154.023,172.416,153.562z"/>
				</g>
				<path style="fill:#222859;" d="M191.57,151.328c-0.229-0.439-0.533-0.719-0.988-0.916c-0.382-0.166-0.766-0.311-1.174-0.399
					c-0.844-0.183-1.66-0.16-2.506-0.002c-0.732,0.137-1.462,0.421-2.098,0.807c-0.392,0.237-0.753,0.504-1.029,0.872
					c-0.096,0.129-0.199,0.259-0.275,0.401c-0.127,0.235-0.143,0.505-0.153,0.767c-0.019,0.524,0.488,0.793,0.942,0.717
					c0.079-0.013,0.069-0.012,0.046-0.009c0.187-0.026,0.325-0.042,0.506-0.134c0.122-0.062,0.239-0.133,0.362-0.192
					c0.265-0.126,0.499-0.305,0.76-0.44c0.069-0.036,0.138-0.07,0.209-0.103c0.015-0.007,0.026-0.012,0.039-0.017
					c0.14-0.051,0.278-0.102,0.421-0.145c0.134-0.04,0.27-0.074,0.407-0.104c0.076-0.016,0.153-0.029,0.229-0.045
					c0.007-0.001,0.009-0.002,0.015-0.003c0.291-0.024,0.579-0.043,0.872-0.03c0.14,0.006,0.279,0.02,0.419,0.031
					c0.074,0.006,0.148,0.012,0.222,0.018c0.001,0,0.001,0,0.002,0.001c0.289,0.064,0.573,0.12,0.853,0.219
					c0.017,0.006,0.093,0.033,0.137,0.049c0.023,0.01,0.027,0.012,0.063,0.027c0.073,0.04,0.15,0.067,0.232,0.081
					c0.219,0.047,0.42,0.03,0.639,0.025C191.489,152.788,191.915,151.99,191.57,151.328z"/>
				<path style="fill:#222859;" d="M170.748,160.391c-0.073-0.121-0.157-0.238-0.263-0.344c-0.315-0.317-0.737-0.514-1.182-0.549
					c-0.658-0.14-1.356-0.006-1.861,0.54c-0.468,0.506-0.612,1.106-0.689,1.769c-0.198,1.688,0.315,5.314,2.862,4.626
					c0.656-0.177,1.118-0.687,1.374-1.294c0.212-0.502,0.27-1.02,0.323-1.561C171.419,162.495,171.448,161.296,170.748,160.391z"/>
				<path style="fill:#222859;" d="M189.152,158.932c-0.073-0.121-0.157-0.238-0.263-0.344c-0.315-0.317-0.737-0.514-1.182-0.549
					c-0.658-0.14-1.356-0.006-1.861,0.54c-0.468,0.506-0.612,1.106-0.689,1.769c-0.198,1.688,0.315,5.314,2.862,4.626
					c0.656-0.177,1.118-0.687,1.374-1.294c0.212-0.502,0.27-1.02,0.323-1.561C189.823,161.036,189.851,159.837,189.152,158.932z"/>
				<g>
					<path style="fill:#A36856;" d="M179.491,166.622c0.007-0.003,0.013-0.006,0.021-0.01c-0.01,0.003-0.024,0.009-0.038,0.016
						c0.003-0.001,0.005-0.001,0.007-0.002C179.487,166.624,179.487,166.624,179.491,166.622z"/>
					<path style="fill:#A36856;" d="M180.595,166.316c-0.137-0.017-0.238-0.028-0.374-0.001c-0.124,0.025-0.251,0.14-0.373,0.152
						c0.09-0.037,0.11-0.045,0.057-0.025c-0.025,0.01-0.05,0.019-0.075,0.028c-0.08,0.032-0.159,0.066-0.236,0.103
						c-0.023,0.011-0.052,0.026-0.082,0.039c0.016-0.005,0.013-0.003-0.021,0.01c-0.016,0.008-0.034,0.013-0.045,0.021
						c0.007-0.005,0.018-0.011,0.028-0.015c-0.171,0.059-0.342,0.105-0.518,0.147c-0.089,0.021-0.177,0.039-0.267,0.056
						c-0.005,0.001-0.001,0.001-0.005,0.001c-0.007,0.001-0.002,0-0.01,0c-0.046,0.003-0.091,0.008-0.137,0.01
						c-0.181,0.01-0.359,0-0.539-0.015c-0.005-0.001-0.003-0.001-0.009-0.002c-0.045-0.009-0.09-0.017-0.134-0.027
						c-0.088-0.018-0.17-0.027-0.261-0.041c0.092,0.014,0.067,0.01-0.009-0.004c-0.089-0.016-0.175-0.04-0.263-0.059
						c-0.065-0.015-0.131-0.02-0.196-0.028c0.003,0-0.039-0.008-0.068-0.013c-0.269-0.05-0.567-0.066-0.678,0.244
						c-0.095,0.264,0.124,0.503,0.278,0.689c0.14,0.17,0.352,0.307,0.547,0.412c0.43,0.231,0.96,0.315,1.442,0.332
						c0.454,0.016,0.907-0.055,1.329-0.224c0.294-0.117,0.519-0.239,0.764-0.442c0.259-0.214,0.368-0.476,0.384-0.809
						C181.139,166.547,180.87,166.35,180.595,166.316z"/>
					<polygon style="fill:#A36856;" points="180.594,166.316 180.595,166.316 180.598,166.316 					"/>
					<path style="fill:#A36856;" d="M180.612,166.317c-0.005-0.001-0.008-0.001-0.013-0.001
						C180.62,166.319,180.635,166.32,180.612,166.317z"/>
					<path style="fill:#A36856;" d="M180.594,166.316c-0.005-0.001-0.01-0.003-0.015-0.004
						C180.488,166.303,180.552,166.311,180.594,166.316z"/>
				</g>
				<path style="fill:#222859;" d="M172.441,171.502c0.581-0.755,11.671-1.347,13.017-0.561c1.347,0.786-0.112,6.508-5.723,7.182
					C174.124,178.796,171.319,172.961,172.441,171.502z"/>
				<path style="fill:#ED6C6B;" d="M184.625,175.434c-0.204-0.09-0.409-0.18-0.614-0.266c-1.139-0.477-2.319-0.931-3.554-0.976
					c-1.166-0.043-2.311,0.281-3.427,0.623c-1.051,0.322-2.128,0.69-3.099,1.205c1.286,1.364,3.251,2.41,5.805,2.104
					C182.035,177.847,183.628,176.719,184.625,175.434z"/>
				<path style="fill:#FFFFFF;" d="M185.458,170.941c-1.347-0.785-12.436-0.194-13.017,0.561c-0.06,0.078-0.104,0.175-0.141,0.276
					c0.535,0.571,1.554,0.744,2.408,0.768c3.064,0.086,6.132,0.04,9.192-0.137c0.472-0.027,0.963-0.063,1.375-0.296
					c0.232-0.131,0.42-0.317,0.584-0.527C185.786,171.289,185.656,171.057,185.458,170.941z"/>
				<path style="fill:#FFFFFF;" d="M170.197,159.174c-1.28,0-1.282,1.988,0,1.988C171.476,161.163,171.478,159.174,170.197,159.174z
					"/>
				<path style="fill:#FFFFFF;" d="M188.6,157.715c-1.279,0-1.282,1.988,0,1.988C189.88,159.704,189.882,157.715,188.6,157.715z"/>
				<path style="fill:#ED6C6B;" d="M167.474,168.87c0.223,1.408-1.581,2.864-4.029,3.252c-2.448,0.388-4.614-0.438-4.837-1.846
					c-0.223-1.408,1.58-2.864,4.029-3.252C165.085,166.636,167.251,167.462,167.474,168.87z"/>
				<path style="fill:#ED6C6B;" d="M196.74,165.581c0.196,1.236-1.388,2.514-3.537,2.855s-4.051-0.385-4.247-1.621
					c-0.196-1.236,1.388-2.514,3.537-2.855C194.643,163.619,196.544,164.345,196.74,165.581z"/>
			</g>
		</g>
	</g>
	<g>
		<ellipse style="fill:#74A7CB;" cx="367.446" cy="428.767" rx="61.479" ry="11.547"/>
		<g>
			<g>
				<path style="fill:#83BAA8;" d="M391.525,225.541c-0.17-2.128-1.167-3.816-3.147-4.703c-3.843-1.722-8.231,0.161-11.173,2.743
					c-1.599,1.403-2.958,3.058-4.28,4.717c-1.395,1.751-2.738,3.546-4.013,5.386c-2.543,3.673-4.814,7.557-6.518,11.694
					c-1.753,4.255-2.822,8.759-3.388,13.32c-0.016,0.127-0.027,0.255-0.042,0.383c-0.017-0.889-0.041-1.779-0.041-2.669
					c0.001-3.644,0.202-7.272,0.548-10.884c0.059-0.055,0.101-0.133,0.104-0.245c0.308-10.868,8.571-18.666,15.27-26.292
					c3.294-3.751,6.477-7.739,8.45-12.366c0.9-2.111,1.728-4.508,1.687-6.833c-0.037-2.07-0.959-4.171-3.131-4.728
					c-2.452-0.628-4.697,0.729-6.399,2.379c-1.829,1.774-3.416,3.819-4.804,5.951c-2.782,4.274-4.775,9.02-6.349,13.856
					c-1.742,5.354-3.104,10.855-4.187,16.378c-1.148,5.859-1.893,11.791-2.119,17.759c-0.045,1.19-0.057,2.379-0.067,3.569
					c-0.551-2.231-1.286-4.417-2.185-6.531c-2.176-5.119-5.255-9.832-8.766-14.131c-0.867-1.063-1.764-2.101-2.687-3.116
					c-0.936-1.03-1.893-2.075-3.036-2.882c-1.986-1.402-5.054-1.989-6.896-0.002c-1.561,1.683-1.284,4.412-0.089,6.214
					c1.613,2.434,4.499,3.742,6.951,5.149c3.068,1.762,6.213,3.438,9.189,5.353c8.444,5.433,7.382,15.962,8.136,24.75
					c0.029,1.037,0.071,2.073,0.13,3.108c0.07,1.235,0.163,2.47,0.268,3.706c-0.819-2.723-1.95-5.368-3.18-7.847
					c-1.221-2.459-2.607-4.833-4.1-7.137c-1.441-2.225-2.912-4.494-4.637-6.512c-1.557-1.823-3.542-3.509-6.001-3.836
					c-1.002-0.133-2.192,0.111-2.571,1.175c-0.369,1.033-0.038,2.365,0.309,3.361c0.806,2.31,2.572,4.154,4.343,5.772
					c2.172,1.983,4.431,3.87,6.615,5.839c2.087,1.882,4.127,3.846,5.838,6.083c0.864,1.129,1.639,2.332,2.257,3.614
					c0.618,1.283,1.03,2.637,1.409,4.006c0.031,0.112,0.101,0.167,0.179,0.196c0.016,0.082,0.034,0.164,0.05,0.246
					c0.179,1.498,0.372,2.993,0.594,4.482c-0.026,1.542,0.009,3.083,0.149,4.611c0.021,0.231,0.401,0.204,0.406-0.026
					c0.008-0.366,0.025-0.73,0.037-1.095c0.052,0.273,0.09,0.548,0.146,0.821c0.038,0.187,0.295,0.123,0.283-0.057
					c-0.004-0.057-0.011-0.114-0.015-0.171c0.066,0.384,0.126,0.769,0.2,1.153c0.07,0.364,0.578,0.24,0.551-0.111
					c-0.185-2.423-0.506-4.837-0.811-7.25c0.267-2.723,0.689-5.424,1.299-8.098c0.867-1.268,1.537-2.661,2.377-3.952
					c0.824-1.267,1.725-2.486,2.692-3.648c1.947-2.338,4.191-4.444,6.641-6.247c2.193-1.615,4.592-2.958,6.629-4.781
					c1.818-1.627,3.53-3.89,3.564-6.443c0.017-1.265-0.473-2.606-1.754-3.068c-1.259-0.454-2.85-0.117-4.076,0.298
					c-2.628,0.891-4.74,2.83-6.481,4.93c-1.961,2.366-3.587,5.042-5.03,7.747c-1.498,2.808-2.767,5.727-3.784,8.743
					c-1.15,3.41-2.035,6.976-2.547,10.589c-0.236-2.04-0.462-4.082-0.662-6.126c-0.224-2.295-0.406-4.593-0.558-6.894
					c0.009-1.336,0.041-2.672,0.122-4.008c0.154-2.545,0.449-5.077,0.917-7.575c0.841-1.936,2.36-3.49,3.942-4.848
					c1.658-1.424,3.45-2.703,5.24-3.955c1.942-1.357,3.94-2.637,5.992-3.822c1.907-1.101,3.873-2.096,5.791-3.177
					c3.616-2.038,7.102-4.538,9.013-8.335C391.203,229.467,391.682,227.513,391.525,225.541z"/>
				<polygon style="fill:#FF8F3D;" points="378.198,282.839 344.609,282.839 347.686,312.106 375.121,312.106 				"/>
				<g>
					<path style="fill:#FFFFFF;" d="M345.714,288.075c-0.184,0.004-0.369,0.005-0.553,0.007l0.126,1.203
						c3.347,0.064,6.695,0.111,10.042,0.136c7.308,0.054,14.616,0.025,21.924,0.02c0.084,0,0.168-0.001,0.251-0.001l0.156-1.485
						c-3.341-0.011-6.682-0.025-10.023-0.027C360.329,287.921,353.02,287.925,345.714,288.075z"/>
					<path style="fill:#FFFFFF;" d="M376.57,292.049c-0.351-0.419-0.697-0.946-1.25-1.111c-1.162-0.347-1.998,1.064-2.656,1.796
						c-0.612,0.682-1.225,1.365-1.838,2.047c-0.862-1.436-1.871-2.779-3.022-3.999c-0.28-0.297-0.761-0.267-1.045,0
						c-1.513,1.422-3.024,2.845-4.53,4.274c-1.439-1.427-2.938-2.793-4.517-4.063c-0.379-0.305-0.805-0.245-1.095,0.141
						c-1.02,1.357-2.092,2.672-3.198,3.959c-1.424-1.736-3.038-3.293-4.89-4.579c-0.209-0.145-0.539-0.084-0.709,0.092
						c-0.728,0.748-1.454,1.504-2.154,2.283l0.155,1.472c0.793-0.874,1.594-1.741,2.447-2.557c1.697,1.375,3.259,2.916,4.57,4.666
						c0.242,0.323,0.737,0.489,1.053,0.136c1.192-1.331,2.324-2.711,3.419-4.122c1.537,1.285,3.015,2.636,4.403,4.082
						c0.278,0.29,0.741,0.262,1.023,0c1.504-1.395,2.999-2.799,4.495-4.203c1.092,1.242,2.037,2.594,2.821,4.056
						c0.22,0.41,0.858,0.501,1.174,0.151c0.688-0.762,1.377-1.524,2.065-2.286c0.334-0.37,0.668-0.739,1.001-1.109
						c0.167-0.185,0.333-0.371,0.501-0.554c0.024-0.026,0.099-0.089,0.151-0.144c0.011,0.007,0.017,0.013,0.031,0.022
						c0.232,0.405,0.649,0.778,0.949,1.138c0.326,0.392,0.652,0.784,0.977,1.176c0.011,0.013,0.022,0.027,0.033,0.041l0.221-2.104
						L376.57,292.049z"/>
				</g>
				<g>
					<path style="fill:#4D867E;" d="M348.658,261.473c-2.867-3.566-6.1-6.742-9.747-9.507c-0.042-0.032-0.084-0.064-0.126-0.096
						c-0.128,0.143-0.237,0.308-0.314,0.507c1.472,1.124,2.909,2.295,4.267,3.554c3.369,3.121,6.152,6.848,8.962,10.463
						c0.77,0.99,1.546,1.977,2.337,2.951c0.758,0.933,1.476,1.978,1.858,3.129c0.043,0.129,0.229,0.077,0.203-0.056
						c-0.42-2.09-1.731-3.748-3.019-5.388C351.618,265.17,350.141,263.318,348.658,261.473z"/>
					<path style="fill:#4D867E;" d="M383.162,248.89c0.148-0.107,0.301-0.209,0.45-0.315c-0.153-0.223-0.342-0.418-0.564-0.583
						c-2.015,1.449-3.952,3.008-5.788,4.679c-3.959,3.603-7.452,7.695-10.397,12.165c-0.836,1.269-1.623,2.568-2.359,3.898
						c-0.706,1.278-1.463,2.621-1.873,4.028c-0.029,0.099,0.105,0.145,0.159,0.067c0.748-1.072,1.336-2.274,1.985-3.409
						c0.654-1.142,1.344-2.265,2.063-3.368c1.448-2.225,3.035-4.358,4.752-6.384C375.008,255.633,378.878,251.991,383.162,248.89z"
						/>
					<path style="fill:#4D867E;" d="M389.603,221.592c-0.152,0.093-0.305,0.182-0.456,0.277c-2.658,1.677-5.189,3.576-7.602,5.589
						c-5.025,4.191-9.49,9.084-13.59,14.17c-1.145,1.42-2.262,2.86-3.35,4.325c-1.059,1.426-2.147,2.868-2.666,4.591
						c-0.048,0.158,0.19,0.262,0.269,0.113c1.497-2.812,3.691-5.263,5.683-7.73c2.049-2.537,4.154-5.028,6.384-7.407
						c4.309-4.596,9.003-8.866,14.29-12.315c0.542-0.354,1.092-0.696,1.646-1.031C390.03,221.964,389.825,221.772,389.603,221.592z"
						/>
					<path style="fill:#4D867E;" d="M340.54,232.243c3.347,2.177,6.279,5.124,8.83,8.175c0.73,0.874,1.433,1.773,2.108,2.69
						c0.659,0.894,1.246,1.841,1.917,2.724c0.125,0.164,0.372,0.028,0.28-0.164c-0.846-1.772-2.091-3.429-3.303-4.966
						c-1.253-1.59-2.611-3.091-4.067-4.498c-1.46-1.411-3.006-2.758-4.659-3.938c-1.81-1.292-3.824-2.167-5.843-3.074
						c-0.529-0.238-1.061-0.468-1.592-0.701c-0.146,0.18-0.283,0.363-0.392,0.561c0.288,0.126,0.576,0.252,0.865,0.377
						C336.676,230.288,338.713,231.055,340.54,232.243z"/>
					<path style="fill:#4D867E;" d="M365.472,221.248c-0.842,1.723-1.577,3.489-2.188,5.307c-0.596,1.773-1.189,3.671-1.307,5.545
						c-0.009,0.138,0.19,0.151,0.23,0.031c0.545-1.605,0.915-3.261,1.482-4.863c0.573-1.62,1.229-3.208,1.945-4.771
						c1.424-3.106,3.168-6.048,5.028-8.91c1.854-2.853,3.85-5.61,5.867-8.348c2.009-2.728,4.041-5.453,6.278-8
						c0.305-0.347,0.624-0.682,0.935-1.023c-0.166-0.187-0.351-0.357-0.554-0.51c-0.026,0.029-0.055,0.056-0.081,0.085
						c-2.271,2.526-4.352,5.221-6.364,7.955C372.628,209.342,368.531,214.986,365.472,221.248z"/>
				</g>
			</g>
			<path style="fill:#222859;" d="M328.638,321.401l-18.222,106.256c-0.311,1.812,1.085,3.467,2.923,3.467
				c1.389,0,2.592-0.964,2.894-2.32l23.74-106.495L328.638,321.401z"/>
			<path style="fill:#222859;" d="M406.947,321.401l18.221,106.256c0.311,1.812-1.085,3.467-2.923,3.467
				c-1.389,0-2.592-0.964-2.894-2.32l-23.74-106.495L406.947,321.401z"/>
			<path style="fill:#222859;" d="M374.846,321.549l4.82,103.292c0.082,1.761-1.441,3.172-3.191,2.955
				c-1.322-0.164-2.354-1.224-2.482-2.55l-10.044-104.17L374.846,321.549z"/>
			<path style="fill:#ED6C6B;" d="M417.069,324.833H316.378c-3.245,0-5.876-2.631-5.876-5.876v-0.976
				c0-3.245,2.631-5.876,5.876-5.876h100.691c3.245,0,5.876,2.631,5.876,5.876v0.976
				C422.945,322.202,420.314,324.833,417.069,324.833z"/>
			<g>
				<rect x="328.687" y="307.949" style="fill:#FFFFFF;" width="75.48" height="4.157"/>
				<path style="fill:#D5F2F9;" d="M362.144,312.106c0.236-0.959,0.272-1.757,0.272-1.757l-4.952-2.4h-28.777
					c0,0,8.979,1.51,17.52,4.157H362.144z"/>
				<path style="fill:#D5F2F9;" d="M390.942,310.859l5.489,1.247h7.737v-1.582c-3.415-1.275-10.359-2.575-10.359-2.575l-7.25,0.568
					L390.942,310.859z"/>
				<path style="fill:#FFFFFF;" d="M389.393,306.816c14.811,3.476,21.007,8.01,21.007,8.01l-35.063,4.534
					c-7.708-6.65-39.597-10.428-46.65-11.411C328.687,307.949,374.582,303.34,389.393,306.816z"/>
				
					<line style="fill:none;stroke:#D5F2F9;stroke-width:0.75;stroke-linecap:round;stroke-linejoin:round;stroke-miterlimit:10;" x1="377.945" y1="314.94" x2="396.534" y2="312.673"/>
				
					<line style="fill:none;stroke:#D5F2F9;stroke-width:0.75;stroke-linecap:round;stroke-linejoin:round;stroke-miterlimit:10;" x1="370.577" y1="312.673" x2="393.814" y2="310.179"/>
				
					<line style="fill:none;stroke:#D5F2F9;stroke-width:0.75;stroke-linecap:round;stroke-linejoin:round;stroke-miterlimit:10;" x1="362.416" y1="310.349" x2="385.993" y2="308.139"/>
				
					<line style="fill:none;stroke:#D5F2F9;stroke-width:0.75;stroke-linecap:round;stroke-linejoin:round;stroke-miterlimit:10;" x1="353.688" y1="308.819" x2="374.658" y2="306.892"/>
			</g>
		</g>
	</g>
	<g>
		<path style="fill:#FFCE5E;" d="M296.861,232.197h-55.72c-2.331,0-4.221-1.89-4.221-4.221v-28.033c0-2.331,1.89-4.221,4.221-4.221
			h55.72c2.331,0,4.221,1.89,4.221,4.221v28.033C301.082,230.307,299.192,232.197,296.861,232.197z"/>
		<circle style="fill:#FFFFFF;" cx="251.008" cy="213.96" r="3.934"/>
		<circle style="fill:#FFFFFF;" cx="269.001" cy="213.96" r="3.934"/>
		<circle style="fill:#FFFFFF;" cx="286.994" cy="213.96" r="3.934"/>
		<polygon style="fill:#FFCE5E;" points="225.17,200.616 238.866,200.616 238.866,211.493 		"/>
		<polygon style="fill:#FF8F3D;" points="236.92,209.947 236.92,200.616 234.301,200.616 		"/>
	</g>
</g>
</svg>
